<svg width="85" height="85" fill="none" xmlns="http://www.w3.org/2000/svg"><path d="M81.136 46.364c-1.159 0-1.931.773-1.931 1.931V73.41c0 1.16-.773 1.932-1.932 1.932H7.727c-1.159 0-1.932-.773-1.932-1.932V48.295c0-1.159-.772-1.931-1.931-1.931-1.16 0-1.932.773-1.932 1.931V73.41c0 3.284 2.511 5.796 5.795 5.796h69.546c3.284 0 5.795-2.512 5.795-5.796V48.295c0-1.159-.773-1.931-1.932-1.931z" fill="#DDD"/><path d="M79.205 19.318H5.795C2.511 19.318 0 21.83 0 25.114v12.363c0 2.705 1.932 5.023 4.443 5.603l30.33 6.76v6.183c0 1.159.773 1.931 1.932 1.931h11.59c1.16 0 1.932-.772 1.932-1.931V49.84l30.33-6.761C83.068 42.5 85 40.181 85 37.477V25.114c0-3.284-2.511-5.796-5.795-5.796zM46.364 54.091h-7.727v-7.727h7.727v7.727zm34.772-16.614c0 .966-.58 1.739-1.545 1.932l-29.364 6.568v-1.545c0-1.16-.773-1.932-1.932-1.932h-11.59c-1.16 0-1.932.773-1.932 1.932v1.545L5.409 39.41c-.966-.193-1.545-.966-1.545-1.932V25.114c0-1.16.772-1.932 1.931-1.932h73.41c1.159 0 1.931.773 1.931 1.932v12.363zM52.16 5.795H32.84c-3.283 0-5.795 2.512-5.795 5.796v1.932c0 1.159.773 1.931 1.932 1.931 1.16 0 1.932-.772 1.932-1.931V11.59c0-1.16.773-1.932 1.932-1.932h19.318c1.159 0 1.932.773 1.932 1.932v1.932c0 1.159.773 1.931 1.931 1.931 1.16 0 1.932-.772 1.932-1.931V11.59c0-3.284-2.51-5.796-5.795-5.796z" fill="#DDD"/></svg>