<svg width="241" height="463" fill="none" xmlns="http://www.w3.org/2000/svg"><path d="M226.22 71.688h-9.132v-49a9.582 9.582 0 00-9.602-9.602 9.582 9.582 0 00-9.602 9.602v49h-38.975v-49a9.582 9.582 0 00-9.602-9.602 9.582 9.582 0 00-9.602 9.602v49h-9.132a9.582 9.582 0 00-9.602 9.602v44.199c0 28.29 20.617 51.872 47.635 56.485-1.789 19.393-18.169 34.644-38.033 34.644-21.087 0-38.221-17.134-38.221-38.222V47.87c0-23.535-19.534-42.692-43.587-42.692-24.053 0-43.587 19.157-43.587 42.693v130.337a9.583 9.583 0 009.602 9.603 9.583 9.583 0 009.602-9.603V47.87c0-12.944 10.92-23.44 24.336-23.44 13.415 0 24.382 10.543 24.382 23.44v130.526c0 31.679 25.748 57.426 57.426 57.426 30.454 0 55.449-23.817 57.332-53.801 27.206-4.472 47.964-28.101 47.964-56.532V81.29c0-5.271-4.283-9.602-9.602-9.602zm-9.602 53.801c0 20.994-17.087 38.08-38.08 38.08h-.33c-20.993 0-38.08-17.086-38.08-38.08V90.893h76.443v34.596h.047z" fill="#000"/><path stroke="#000" stroke-width="19" d="M14.5 172v291"/></svg>