<svg width="85" height="85" viewBox="0 0 85 85" fill="none" xmlns="http://www.w3.org/2000/svg">
<path d="M81.1363 46.3637C79.9772 46.3637 79.2045 47.1365 79.2045 48.2955V73.4091C79.2045 74.5683 78.4317 75.3409 77.2728 75.3409H7.72716C6.56804 75.3409 5.7954 74.5681 5.7954 73.4091V48.2955C5.7954 47.1363 5.0226 46.3637 3.86364 46.3637C2.70469 46.3637 1.93188 47.1365 1.93188 48.2955V73.4091C1.93188 76.6933 4.4432 79.2046 7.72732 79.2046H77.2728C80.5569 79.2046 83.0682 76.6933 83.0682 73.4091V48.2955C83.0682 47.1363 82.2954 46.3637 81.1363 46.3637Z" fill="#DDDDDD"/>
<path d="M79.2046 19.3182H5.79544C2.51132 19.3182 0 21.8296 0 25.1137V37.4774C0 40.1817 1.93176 42.5 4.44324 43.0795L34.7728 49.8409V56.0226C34.7728 57.1817 35.5456 57.9544 36.7046 57.9544H48.2954C49.4546 57.9544 50.2272 57.1816 50.2272 56.0226V49.8409L80.5568 43.0795C83.0682 42.5 85 40.1817 85 37.4772V25.1135C85 21.8296 82.4887 19.3182 79.2046 19.3182ZM46.3637 54.0909H38.6365V46.3637H46.3637V54.0909ZM81.1363 37.4772C81.1363 38.4431 80.5568 39.2159 79.5909 39.4089L50.2272 45.9772V44.4317C50.2272 43.2726 49.4544 42.5 48.2954 42.5H36.7046C35.5454 42.5 34.7728 43.2728 34.7728 44.4317V45.9772L5.40912 39.4091C4.44324 39.2159 3.86368 38.4432 3.86368 37.4774V25.1137C3.86368 23.9546 4.63648 23.1819 5.79544 23.1819H79.2046C80.3637 23.1819 81.1363 23.9547 81.1363 25.1137V37.4772V37.4772Z" fill="#DDDDDD"/>
<path d="M52.1591 5.79547H32.8408C29.5567 5.79547 27.0454 8.30679 27.0454 11.5909V13.5227C27.0454 14.6818 27.8182 15.4544 28.9772 15.4544C30.1361 15.4544 30.9089 14.6816 30.9089 13.5227V11.5909C30.9089 10.4318 31.6817 9.65915 32.8407 9.65915H52.1589C53.318 9.65915 54.0907 10.432 54.0907 11.5909V13.5227C54.0907 14.6818 54.8635 15.4544 56.0224 15.4544C57.1816 15.4544 57.9542 14.6816 57.9542 13.5227V11.5909C57.9545 8.30679 55.4432 5.79547 52.1591 5.79547Z" fill="#DDDDDD"/>
</svg>
