<svg width="241" height="463" viewBox="0 0 241 463" fill="none" xmlns="http://www.w3.org/2000/svg">
<path d="M226.22 71.6881H217.088V22.6879C217.088 17.3689 212.805 13.0855 207.486 13.0855C202.167 13.0855 197.884 17.3689 197.884 22.6879V71.6881H158.909V22.6879C158.909 17.3689 154.626 13.0855 149.307 13.0855C143.988 13.0855 139.705 17.3689 139.705 22.6879V71.6881H130.573C125.254 71.6881 120.971 75.9715 120.971 81.2904V125.489C120.971 153.779 141.588 177.361 168.606 181.974C166.817 201.367 150.437 216.618 130.573 216.618C109.486 216.618 92.352 199.484 92.352 178.396V178.208V47.8705C92.352 24.3354 72.8178 5.17773 48.7648 5.17773C24.7119 5.17773 5.17773 24.3354 5.17773 47.8705V178.208C5.17773 183.527 9.46113 187.811 14.7801 187.811C20.099 187.811 24.3824 183.527 24.3824 178.208V47.8705C24.3824 34.9262 35.3027 24.4295 48.7178 24.4295C62.1328 24.4295 73.1002 34.9732 73.1002 47.8705V178.208V178.396C73.1002 210.075 98.8476 235.822 130.526 235.822C160.98 235.822 185.975 212.005 187.858 182.021C215.064 177.549 235.822 153.92 235.822 125.489V81.2904C235.822 76.0186 231.539 71.6881 226.22 71.6881ZM216.618 125.489C216.618 146.483 199.531 163.569 178.538 163.569H178.208C157.215 163.569 140.128 146.483 140.128 125.489V90.8928H216.571V125.489H216.618Z" fill="black"/>
<line x1="14.5" y1="172" x2="14.5" y2="463" stroke="black" stroke-width="19"/>
</svg>
